<?xml version="1.0" encoding="UTF-8" standalone="no"?>
<!-- Created with Inkscape (http://www.inkscape.org/) -->

<svg
   xmlns:osb="http://www.openswatchbook.org/uri/2009/osb"
   xmlns:dc="http://purl.org/dc/elements/1.1/"
   xmlns:cc="http://creativecommons.org/ns#"
   xmlns:rdf="http://www.w3.org/1999/02/22-rdf-syntax-ns#"
   xmlns:svg="http://www.w3.org/2000/svg"
   xmlns="http://www.w3.org/2000/svg"
   xmlns:xlink="http://www.w3.org/1999/xlink"
   xmlns:sodipodi="http://sodipodi.sourceforge.net/DTD/sodipodi-0.dtd"
   xmlns:inkscape="http://www.inkscape.org/namespaces/inkscape"
   width="53.006516mm"
   height="67.906967mm"
   viewBox="0 0 187.81836 240.61524"
   id="svg2"
   version="1.1"
   inkscape:version="0.91 r13725"
   sodipodi:docname="doc.svg">
  <defs
     id="defs4">
    <linearGradient
       id="linearGradient4348"
       osb:paint="solid">
      <stop
         style="stop-color:#000000;stop-opacity:1;"
         offset="0"
         id="stop4350" />
    </linearGradient>
  </defs>
  <sodipodi:namedview
     id="base"
     pagecolor="#ffffff"
     bordercolor="#666666"
     borderopacity="1.0"
     inkscape:pageopacity="0.0"
     inkscape:pageshadow="2"
     inkscape:zoom="1.979899"
     inkscape:cx="66.42003"
     inkscape:cy="119.48118"
     inkscape:document-units="px"
     inkscape:current-layer="layer6"
     showgrid="false"
     fit-margin-top="0"
     fit-margin-left="0"
     fit-margin-right="0"
     fit-margin-bottom="0"
     inkscape:window-width="1315"
     inkscape:window-height="744"
     inkscape:window-x="51"
     inkscape:window-y="24"
     inkscape:window-maximized="1" />
  <metadata
     id="metadata7">
    <rdf:RDF>
      <cc:Work
         rdf:about="">
        <dc:format>image/svg+xml</dc:format>
        <dc:type
           rdf:resource="http://purl.org/dc/dcmitype/StillImage" />
        <dc:title></dc:title>
      </cc:Work>
    </rdf:RDF>
  </metadata>
  <g
     inkscape:groupmode="layer"
     id="layer6"
     inkscape:label="Layer 4"
     style="display:inline"
     transform="translate(-291.05273,-347.76367)">
    <rect
       style="display:inline;opacity:1;fill:#ffffff;fill-opacity:1;stroke:none;stroke-width:0.99999976;stroke-miterlimit:4;stroke-dasharray:none;stroke-opacity:1"
       id="rect4469"
       width="72.604721"
       height="5.6821151"
       x="350.74307"
       y="386.38358"
       ry="2.0203052" />
    <circle
       style="display:inline;opacity:1;fill:#ffffff;fill-opacity:1;stroke:none;stroke-width:1;stroke-miterlimit:4;stroke-dasharray:none;stroke-opacity:1"
       id="path4494"
       cx="327.23676"
       cy="429.93124"
       r="7.8571429" />
    <rect
       style="display:inline;opacity:1;fill:#ffffff;fill-opacity:1;stroke:none;stroke-width:1;stroke-miterlimit:4;stroke-dasharray:none;stroke-opacity:1"
       id="rect4496"
       width="103.92857"
       height="8.2142859"
       x="352.0582"
       y="425.8241"
       ry="2.6785715" />
    <use
       style="display:inline;fill:#ffffff"
       x="0"
       y="0"
       xlink:href="#path4494"
       id="use4498"
       transform="translate(-5.0765246e-6,36.000003)"
       width="100%"
       height="100%" />
    <use
       style="display:inline;fill:#ffffff"
       x="0"
       y="0"
       xlink:href="#rect4496"
       id="use4500"
       transform="translate(-5.0765246e-6,36.000003)"
       width="100%"
       height="100%" />
    <use
       style="display:inline;fill:#ffffff"
       x="0"
       y="0"
       xlink:href="#use4498"
       id="use4502"
       transform="translate(-5.0765246e-6,36.000003)"
       width="100%"
       height="100%" />
    <use
       style="display:inline;fill:#ffffff"
       x="0"
       y="0"
       xlink:href="#use4500"
       id="use4504"
       transform="translate(-5.0765246e-6,36.000003)"
       width="100%"
       height="100%" />
    <use
       style="display:inline;fill:#ffffff"
       x="0"
       y="0"
       xlink:href="#use4502"
       id="use4506"
       transform="translate(-5.0765246e-6,36.000003)"
       width="100%"
       height="100%" />
    <use
       style="display:inline;fill:#ffffff"
       x="0"
       y="0"
       xlink:href="#use4504"
       id="use4508"
       transform="translate(-5.0765246e-6,36.000003)"
       width="100%"
       height="100%" />
    <path
       style="color:#000000;font-style:normal;font-variant:normal;font-weight:normal;font-stretch:normal;font-size:medium;line-height:normal;font-family:sans-serif;text-indent:0;text-align:start;text-decoration:none;text-decoration-line:none;text-decoration-style:solid;text-decoration-color:#000000;letter-spacing:normal;word-spacing:normal;text-transform:none;direction:ltr;block-progression:tb;writing-mode:lr-tb;baseline-shift:baseline;text-anchor:start;white-space:normal;clip-rule:nonzero;display:inline;overflow:visible;visibility:visible;opacity:1;isolation:auto;mix-blend-mode:normal;color-interpolation:sRGB;color-interpolation-filters:linearRGB;solid-color:#000000;solid-opacity:1;fill:#ffffff;fill-opacity:1;fill-rule:nonzero;stroke:none;stroke-width:7;stroke-linecap:butt;stroke-linejoin:miter;stroke-miterlimit:4;stroke-dasharray:none;stroke-dashoffset:0;stroke-opacity:1;color-rendering:auto;image-rendering:auto;shape-rendering:auto;text-rendering:auto;enable-background:accumulate"
       d="m 386.75195,347.76367 c -6.93188,0 -12.76139,4.88408 -14.24609,11.38086 l -57.95313,0 c -12.95846,0 -23.5,10.54154 -23.5,23.5 l 0,182.23438 c 0,12.95846 10.54154,23.5 23.5,23.5 l 140.81836,0 c 12.95846,0 23.5,-10.54154 23.5,-23.5 l 0,-182.23438 c 0,-12.95846 -10.54154,-23.5 -23.5,-23.5 l -54.22656,0 c -1.4847,-6.49678 -7.31421,-11.38086 -14.24609,-11.38086 -0.025,0 -0.0492,0.004 -0.0742,0.004 -0.0244,-1.2e-4 -0.0479,-0.004 -0.0723,-0.004 z m 0.0742,5.00391 c 5.30856,0.0398 9.54688,4.29862 9.54688,9.61719 0,5.31856 -4.23832,9.57736 -9.54688,9.61718 -5.30942,-0.0389 -9.54883,-4.29801 -9.54883,-9.61718 0,-5.31918 4.23941,-9.57833 9.54883,-9.61719 z m -72.27344,13.37695 58.07422,0 c 0.35212,1.31496 0.87926,2.55994 1.5625,3.70313 0,0 4.84398,6.29575 -23.10937,6.74218 l -1.11524,0 0,2.39844 1.11524,0 71.49023,0 1.11524,0 0,-2.39844 -1.11524,0 c -27.95335,-0.44643 -23.10937,-6.74218 -23.10937,-6.74218 0.68325,-1.14321 1.21233,-2.38814 1.56445,-3.70313 l 54.3457,0 c 9.20154,0 16.5,7.29846 16.5,16.5 l 0,182.23438 c 0,9.20154 -7.29846,16.5 -16.5,16.5 l -140.81836,0 c -9.20154,0 -16.5,-7.29846 -16.5,-16.5 l 0,-182.23438 c 0,-9.20154 7.29846,-16.5 16.5,-16.5 z"
       id="rect3494"
       inkscape:connector-curvature="0" />
  </g>
</svg>
