<?xml version="1.0" encoding="UTF-8" standalone="no"?>
<!-- Created with Inkscape (http://www.inkscape.org/) -->

<svg
   xmlns:dc="http://purl.org/dc/elements/1.1/"
   xmlns:cc="http://creativecommons.org/ns#"
   xmlns:rdf="http://www.w3.org/1999/02/22-rdf-syntax-ns#"
   xmlns:svg="http://www.w3.org/2000/svg"
   xmlns="http://www.w3.org/2000/svg"
   xmlns:sodipodi="http://sodipodi.sourceforge.net/DTD/sodipodi-0.dtd"
   xmlns:inkscape="http://www.inkscape.org/namespaces/inkscape"
   width="14.220949mm"
   height="25.566315mm"
   viewBox="0 0 50.38919 90.589304"
   id="svg2"
   version="1.1"
   inkscape:version="0.91 r13725"
   sodipodi:docname="left-arrow.svg">
  <defs
     id="defs4" />
  <sodipodi:namedview
     id="base"
     pagecolor="#ffffff"
     bordercolor="#666666"
     borderopacity="1.0"
     inkscape:pageopacity="0.0"
     inkscape:pageshadow="2"
     inkscape:zoom="1.4142136"
     inkscape:cx="-84.203516"
     inkscape:cy="67.625745"
     inkscape:document-units="px"
     inkscape:current-layer="layer1"
     showgrid="false"
     fit-margin-top="0"
     fit-margin-left="0"
     fit-margin-right="0"
     fit-margin-bottom="0"
     inkscape:window-width="1315"
     inkscape:window-height="744"
     inkscape:window-x="51"
     inkscape:window-y="24"
     inkscape:window-maximized="1" />
  <metadata
     id="metadata7">
    <rdf:RDF>
      <cc:Work
         rdf:about="">
        <dc:format>image/svg+xml</dc:format>
        <dc:type
           rdf:resource="http://purl.org/dc/dcmitype/StillImage" />
        <dc:title></dc:title>
      </cc:Work>
    </rdf:RDF>
  </metadata>
  <g
     inkscape:label="Layer 1"
     inkscape:groupmode="layer"
     id="layer1"
     transform="translate(-203.96915,-119.06819)">
    <path
       style="opacity:1;fill:#ffffff;fill-opacity:1;stroke:none;stroke-width:1;stroke-miterlimit:4;stroke-dasharray:none;stroke-opacity:1"
       d="m 249.08465,119.06935 c -1.6567,-0.0363 -3.58438,0.7836 -5.14844,2.34766 l -37.61914,37.61913 c -2.5025,2.5025 -3.09758,5.93758 -1.33399,7.70118 l 0.5,0.5 c 0.15784,0.15783 0.33289,0.28977 0.51563,0.41015 0.38194,0.71226 0.89058,1.40816 1.52539,2.04297 l 37.61914,37.61914 c 2.5025,2.5025 5.93757,3.09759 7.70117,1.33399 l 0.5,-0.5 c 1.7636,-1.7636 1.16852,-5.19869 -1.33398,-7.70118 l -36.6836,-36.68164 35.47657,-35.47656 c 2.50249,-2.50249 3.09758,-5.93757 1.33398,-7.70117 l -0.5,-0.5 c -0.66135,-0.66134 -1.55872,-0.99186 -2.55273,-1.01367 z"
       id="rect3347"
       inkscape:connector-curvature="0" />
  </g>
</svg>
